<?xml version="1.0" encoding="utf-8"?>
<!-- Generator: Adobe Illustrator 28.2.0, SVG Export Plug-In . SVG Version: 6.00 Build 0)  -->
<svg version="1.1" id="Layer_1" xmlns="http://www.w3.org/2000/svg" xmlns:xlink="http://www.w3.org/1999/xlink" x="0px" y="0px"
	 viewBox="0 0 285.1 150.2" style="enable-background:new 0 0 285.1 150.2;" xml:space="preserve">
<style type="text/css">
	.st0{fill:#008635;}
</style>
<g id="Margens_Protecao">
</g>
<g id="Logo">
	<g id="Logo_Vertical">
		<path id="Via_Verde" class="st0" d="M180.9,45.2l-16.9,32c-0.9,1.7-2.7,2.8-4.6,2.8h-5.9l-4.6-34.8h8.4l2.6,25.8l12.8-25.8H180.9z
			 M183.9,45.2L177.1,80h8.1l6.8-34.8H183.9z M216.7,45.2l5.7,34.8h-8l-1.1-8.4H201l-4.4,8.4h-8.2l17.9-32.1
			c0.9-1.7,2.7-2.7,4.6-2.7H216.7z M212.5,65.3l-1.6-12.8l-6.8,12.8H212.5z M155.3,88.6l-12.8,25.8l-2.6-25.8h-8.4l4.6,34.8h5.9
			c1.9,0,3.7-1.1,4.6-2.8l16.9-32H155.3z M188.3,95.4l2.6-6.8h-20.3c-2.5,0-4.7,1.8-5.2,4.3l-6,30.5h24.2l2.6-6.8h-17.7l1.5-7.5
			h12.7l2.6-6.8h-14l1.3-6.9H188.3z M219.1,93.6c0.6,1.2,0.9,2.6,0.9,4.2c0,0.4,0,0.9-0.1,1.3c0,0.5-0.1,1-0.2,1.4
			c-0.5,2.8-1.5,4.9-2.9,6.4c-1.5,1.5-3.3,2.5-5.3,3.2l5.4,13.2h-8.3l-4.7-12.2h-5.3l-2.4,12.2h-7.6l6-30.6c0.5-2.5,2.7-4.2,5.2-4.2
			h7.7c1.9,0,3.7,0.2,5.2,0.5s2.9,0.9,4,1.6C217.7,91.4,218.5,92.4,219.1,93.6z M212.2,98.7c0-1.4-0.4-2.3-1.3-2.8s-2.2-0.8-3.9-0.8
			h-5.3l-1.9,9.7h5.3c1.2,0,2.2-0.1,3-0.2c0.8-0.1,1.5-0.4,2-0.7s1-0.8,1.3-1.3c0.3-0.6,0.5-1.3,0.7-2.1c0.1-0.3,0.1-0.6,0.1-0.9
			C212.2,99.2,212.2,98.9,212.2,98.7z M253.2,101.1c0,1.5-0.2,3.3-0.5,5.3c-0.6,3.4-1.5,6.2-2.7,8.4s-2.7,3.9-4.4,5.2
			c-1.7,1.3-3.7,2.1-5.9,2.6c-2.2,0.5-4.6,0.7-7.2,0.7H220l6-30.6c0.5-2.5,2.7-4.2,5.2-4.2h7.1c4.9,0,8.7,1,11.2,2.9
			C252,93.5,253.2,96.7,253.2,101.1z M245,101.4c0-1.2-0.2-2.2-0.5-3s-0.8-1.4-1.4-1.9s-1.4-0.8-2.4-1c-0.9-0.2-2-0.3-3.3-0.3h-3.8
			l-4.2,21.3h4c1.6,0,3-0.1,4.2-0.4c1.2-0.3,2.3-0.8,3.2-1.5c0.9-0.7,1.6-1.8,2.3-3.2c0.6-1.4,1.1-3.2,1.5-5.6
			c0.2-0.9,0.3-1.7,0.4-2.5C245,102.8,245,102.1,245,101.4z M282.5,95.4l2.6-6.8h-20.3c-2.5,0-4.7,1.8-5.2,4.3l-6,30.5h24.2l2.6-6.8
			h-17.7l1.5-7.5h12.7l2.6-6.8h-14l1.3-6.9H282.5z"/>
		<path id="Simbolo" class="st0" d="M170.3,2.4c-10.8,0-23.2,8.8-27.6,19.7l-44.1,109c-4.2,10.5-16.1,19-26.6,19.1H36.1v-2.4
			c10.5-0.1,22.4-8.6,26.6-19.1l44.1-109C111.2,8.9,123.6,0,134.4,0H181v2.4C181,2.4,170.3,2.4,170.3,2.4z M90.8,43.2
			c-4.5-10.7-16.7-19.3-27.5-19.3H0v2.4h0.2c10.5,0.1,22.4,8.6,26.6,19.1l31.5,78L90.8,43.2z"/>
	</g>
</g>
</svg>
